# xmcd
# 
# Track frame offsets:
#     150
#     12235
#     24723
#     36722
#     48762
#     60262
#     73792
#     85122
#     98397
#     108401
#     121586
#     134394
#     145957
#     157949
#     166160
#     178947
#     192961
#     203914
#     214684
#     226044
#     239373
#     251172
#     262032
#     274133
#     286043
#     300039
# 
# Disc length: 4193
# 
# Revision: 3
# Processed by: cddbd v1.5.2PL0 Copyright (c) Steve Scherf et al.
# Submitted via: fre:ac v1.0.17
# 
DISCID=5f105f1a
DTITLE=Various Artist - As Good As It Gets - Western Swing - CD 2
DYEAR=2000
DGENRE=Country
TTITLE0=Louise Massey and Her Westerners - My Adobe Hacienda
TTITLE1=Roy Rogers - I've Learned A Lot About Women
TTITLE2=Bob Willis - Take Me Back To Tulsa
TTITLE3=Spade Cooley - Three Way Boogie
TTITLE4=Gene Autry - Don't Fence Me In
TTITLE5=Merle Travis - Divorce Me C.O.D.
TTITLE6=The Texas Wanderen - Rackin' It Back
TTITLE7=Milton Brown and His Musical Brownies - Brownie's Stomp
TTITLE8=T. Texas Tyler - You Doggone Son Of A Gun
TTITLE9=Tex Ritter - Jealous Heart
TTITLE10=Sons Of The Pioneers - Tumbling Tumbleweeds
TTITLE11=Bob Wills - Steel Guitar Rag
TTITLE12=Red Foley - Tennessee Saturday Night
TTITLE13=Tex Williams - Won't You Ride In My Little Red Wagon
TTITLE14=Spade Cooley - Shame On You
TTITLE15=Tommy Duncan - Gambling Polka Dot Blues
TTITLE16=Hank Thompson - Humpty Dumpty Heart
TTITLE17=Jimmy Wakely and Arthur Smith - Take Me Back To Tennessee
TTITLE18=Sweet Violet Boys - I Love My Fruit
TTITLE19=Modern Mountaineers feat. Moon Mullican - Pipeliner Blues
TTITLE20=Bob Dunn's Vagabonds - Stompin' At The Honky Tonk
TTITLE21=Johnny Tyler - Little Rock A-R-K
TTITLE22=Al Dexter - Saturday Night Boogie
TTITLE23=Gene Autry - Buttons And Bows
TTITLE24=Patsy Montana - I Want To Be A Cowboys Sweetheart
TTITLE25=Milton Brown - Sweet Jennie Lee
EXTD=Disky - DO 247362
EXTT0=
EXTT1=
EXTT2=
EXTT3=
EXTT4=
EXTT5=
EXTT6=
EXTT7=
EXTT8=
EXTT9=
EXTT10=
EXTT11=
EXTT12=
EXTT13=
EXTT14=
EXTT15=
EXTT16=
EXTT17=
EXTT18=
EXTT19=
EXTT20=
EXTT21=
EXTT22=
EXTT23=
EXTT24=
EXTT25=
PLAYORDER=
